<svg id="visual" viewBox="0 0 960 540" width="960" height="540" xmlns="http://www.w3.org/2000/svg" xmlns:xlink="http://www.w3.org/1999/xlink" version="1.1"><rect x="0" y="0" width="960" height="540" fill="#001220"></rect><path d="M0 327L11.5 323.8C23 320.7 46 314.3 68.8 312.2C91.7 310 114.3 312 137.2 312.8C160 313.7 183 313.3 205.8 308.2C228.7 303 251.3 293 274.2 293.2C297 293.3 320 303.7 342.8 303.8C365.7 304 388.3 294 411.2 292.7C434 291.3 457 298.7 480 303.2C503 307.7 526 309.3 548.8 311.8C571.7 314.3 594.3 317.7 617.2 315.8C640 314 663 307 685.8 301.8C708.7 296.7 731.3 293.3 754.2 293.5C777 293.7 800 297.3 822.8 294.3C845.7 291.3 868.3 281.7 891.2 279.2C914 276.7 937 281.3 948.5 283.7L960 286L960 541L948.5 541C937 541 914 541 891.2 541C868.3 541 845.7 541 822.8 541C800 541 777 541 754.2 541C731.3 541 708.7 541 685.8 541C663 541 640 541 617.2 541C594.3 541 571.7 541 548.8 541C526 541 503 541 480 541C457 541 434 541 411.2 541C388.3 541 365.7 541 342.8 541C320 541 297 541 274.2 541C251.3 541 228.7 541 205.8 541C183 541 160 541 137.2 541C114.3 541 91.7 541 68.8 541C46 541 23 541 11.5 541L0 541Z" fill="#a22c29"></path><path d="M0 350L11.5 344C23 338 46 326 68.8 325.3C91.7 324.7 114.3 335.3 137.2 338.7C160 342 183 338 205.8 328.8C228.7 319.7 251.3 305.3 274.2 303.5C297 301.7 320 312.3 342.8 314.8C365.7 317.3 388.3 311.7 411.2 312.8C434 314 457 322 480 328.5C503 335 526 340 548.8 342.5C571.7 345 594.3 345 617.2 344C640 343 663 341 685.8 336.2C708.7 331.3 731.3 323.7 754.2 319C777 314.3 800 312.7 822.8 308.5C845.7 304.3 868.3 297.7 891.2 300.2C914 302.7 937 314.3 948.5 320.2L960 326L960 541L948.5 541C937 541 914 541 891.2 541C868.3 541 845.7 541 822.8 541C800 541 777 541 754.2 541C731.3 541 708.7 541 685.8 541C663 541 640 541 617.2 541C594.3 541 571.7 541 548.8 541C526 541 503 541 480 541C457 541 434 541 411.2 541C388.3 541 365.7 541 342.8 541C320 541 297 541 274.2 541C251.3 541 228.7 541 205.8 541C183 541 160 541 137.2 541C114.3 541 91.7 541 68.8 541C46 541 23 541 11.5 541L0 541Z" fill="#a02c28"></path><path d="M0 330L11.5 329.8C23 329.7 46 329.3 68.8 330.8C91.7 332.3 114.3 335.7 137.2 333.8C160 332 183 325 205.8 323.8C228.7 322.7 251.3 327.3 274.2 327.8C297 328.3 320 324.7 342.8 324.3C365.7 324 388.3 327 411.2 334.7C434 342.3 457 354.7 480 358.2C503 361.7 526 356.3 548.8 356.7C571.7 357 594.3 363 617.2 363.8C640 364.7 663 360.3 685.8 359C708.7 357.7 731.3 359.3 754.2 360.7C777 362 800 363 822.8 364.5C845.7 366 868.3 368 891.2 360.3C914 352.7 937 335.3 948.5 326.7L960 318L960 541L948.5 541C937 541 914 541 891.2 541C868.3 541 845.7 541 822.8 541C800 541 777 541 754.2 541C731.3 541 708.7 541 685.8 541C663 541 640 541 617.2 541C594.3 541 571.7 541 548.8 541C526 541 503 541 480 541C457 541 434 541 411.2 541C388.3 541 365.7 541 342.8 541C320 541 297 541 274.2 541C251.3 541 228.7 541 205.8 541C183 541 160 541 137.2 541C114.3 541 91.7 541 68.8 541C46 541 23 541 11.5 541L0 541Z" fill="#9f2c28"></path><path d="M0 333L11.5 339.8C23 346.7 46 360.3 68.8 363.2C91.7 366 114.3 358 137.2 352C160 346 183 342 205.8 345.5C228.7 349 251.3 360 274.2 359.7C297 359.3 320 347.7 342.8 349C365.7 350.3 388.3 364.7 411.2 369.3C434 374 457 369 480 368.3C503 367.7 526 371.3 548.8 369.3C571.7 367.3 594.3 359.7 617.2 355.7C640 351.7 663 351.3 685.8 351.7C708.7 352 731.3 353 754.2 358.8C777 364.7 800 375.3 822.8 378.3C845.7 381.3 868.3 376.7 891.2 374.3C914 372 937 372 948.5 372L960 372L960 541L948.5 541C937 541 914 541 891.2 541C868.3 541 845.7 541 822.8 541C800 541 777 541 754.2 541C731.3 541 708.7 541 685.8 541C663 541 640 541 617.2 541C594.3 541 571.7 541 548.8 541C526 541 503 541 480 541C457 541 434 541 411.2 541C388.3 541 365.7 541 342.8 541C320 541 297 541 274.2 541C251.3 541 228.7 541 205.8 541C183 541 160 541 137.2 541C114.3 541 91.7 541 68.8 541C46 541 23 541 11.5 541L0 541Z" fill="#9d2b27"></path><path d="M0 387L11.5 386.8C23 386.7 46 386.3 68.8 389C91.7 391.7 114.3 397.3 137.2 401C160 404.7 183 406.3 205.8 404.5C228.7 402.7 251.3 397.3 274.2 388.2C297 379 320 366 342.8 359.7C365.7 353.3 388.3 353.7 411.2 356.2C434 358.7 457 363.3 480 372.2C503 381 526 394 548.8 391.8C571.7 389.7 594.3 372.3 617.2 371.8C640 371.3 663 387.7 685.8 388.2C708.7 388.7 731.3 373.3 754.2 366C777 358.7 800 359.3 822.8 363C845.7 366.7 868.3 373.3 891.2 377.7C914 382 937 384 948.5 385L960 386L960 541L948.5 541C937 541 914 541 891.2 541C868.3 541 845.7 541 822.8 541C800 541 777 541 754.2 541C731.3 541 708.7 541 685.8 541C663 541 640 541 617.2 541C594.3 541 571.7 541 548.8 541C526 541 503 541 480 541C457 541 434 541 411.2 541C388.3 541 365.7 541 342.8 541C320 541 297 541 274.2 541C251.3 541 228.7 541 205.8 541C183 541 160 541 137.2 541C114.3 541 91.7 541 68.8 541C46 541 23 541 11.5 541L0 541Z" fill="#9b2b27"></path><path d="M0 391L11.5 391.2C23 391.3 46 391.7 68.8 392.8C91.7 394 114.3 396 137.2 394.2C160 392.3 183 386.7 205.8 386.7C228.7 386.7 251.3 392.3 274.2 399.3C297 406.3 320 414.7 342.8 416C365.7 417.3 388.3 411.7 411.2 403.7C434 395.7 457 385.3 480 382C503 378.7 526 382.3 548.8 388.3C571.7 394.3 594.3 402.7 617.2 407.7C640 412.7 663 414.3 685.8 416C708.7 417.7 731.3 419.3 754.2 414.5C777 409.7 800 398.3 822.8 392.3C845.7 386.3 868.3 385.7 891.2 391.3C914 397 937 409 948.5 415L960 421L960 541L948.5 541C937 541 914 541 891.2 541C868.3 541 845.7 541 822.8 541C800 541 777 541 754.2 541C731.3 541 708.7 541 685.8 541C663 541 640 541 617.2 541C594.3 541 571.7 541 548.8 541C526 541 503 541 480 541C457 541 434 541 411.2 541C388.3 541 365.7 541 342.8 541C320 541 297 541 274.2 541C251.3 541 228.7 541 205.8 541C183 541 160 541 137.2 541C114.3 541 91.7 541 68.8 541C46 541 23 541 11.5 541L0 541Z" fill="#9a2b26"></path><path d="M0 414L11.5 418.8C23 423.7 46 433.3 68.8 433.7C91.7 434 114.3 425 137.2 417.5C160 410 183 404 205.8 403.7C228.7 403.3 251.3 408.7 274.2 414.5C297 420.3 320 426.7 342.8 430.2C365.7 433.7 388.3 434.3 411.2 432.2C434 430 457 425 480 418.3C503 411.7 526 403.3 548.8 404C571.7 404.7 594.3 414.3 617.2 414.3C640 414.3 663 404.7 685.8 406C708.7 407.3 731.3 419.7 754.2 422.8C777 426 800 420 822.8 421.3C845.7 422.7 868.3 431.3 891.2 429.8C914 428.3 937 416.7 948.5 410.8L960 405L960 541L948.5 541C937 541 914 541 891.2 541C868.3 541 845.7 541 822.8 541C800 541 777 541 754.2 541C731.3 541 708.7 541 685.8 541C663 541 640 541 617.2 541C594.3 541 571.7 541 548.8 541C526 541 503 541 480 541C457 541 434 541 411.2 541C388.3 541 365.7 541 342.8 541C320 541 297 541 274.2 541C251.3 541 228.7 541 205.8 541C183 541 160 541 137.2 541C114.3 541 91.7 541 68.8 541C46 541 23 541 11.5 541L0 541Z" fill="#982b26"></path><path d="M0 463L11.5 459.2C23 455.3 46 447.7 68.8 440.2C91.7 432.7 114.3 425.3 137.2 426C160 426.7 183 435.3 205.8 441.8C228.7 448.3 251.3 452.7 274.2 448.8C297 445 320 433 342.8 428.7C365.7 424.3 388.3 427.7 411.2 429.8C434 432 457 433 480 431C503 429 526 424 548.8 422.2C571.7 420.3 594.3 421.7 617.2 422.2C640 422.7 663 422.3 685.8 427C708.7 431.7 731.3 441.3 754.2 444C777 446.7 800 442.3 822.8 440C845.7 437.7 868.3 437.3 891.2 435.8C914 434.3 937 431.7 948.5 430.3L960 429L960 541L948.5 541C937 541 914 541 891.2 541C868.3 541 845.7 541 822.8 541C800 541 777 541 754.2 541C731.3 541 708.7 541 685.8 541C663 541 640 541 617.2 541C594.3 541 571.7 541 548.8 541C526 541 503 541 480 541C457 541 434 541 411.2 541C388.3 541 365.7 541 342.8 541C320 541 297 541 274.2 541C251.3 541 228.7 541 205.8 541C183 541 160 541 137.2 541C114.3 541 91.7 541 68.8 541C46 541 23 541 11.5 541L0 541Z" fill="#972a25"></path><path d="M0 474L11.5 475.2C23 476.3 46 478.7 68.8 475.5C91.7 472.3 114.3 463.7 137.2 459.2C160 454.7 183 454.3 205.8 452C228.7 449.7 251.3 445.3 274.2 442.8C297 440.3 320 439.7 342.8 444.3C365.7 449 388.3 459 411.2 463.2C434 467.3 457 465.7 480 466.5C503 467.3 526 470.7 548.8 473.7C571.7 476.7 594.3 479.3 617.2 475.8C640 472.3 663 462.7 685.8 458.2C708.7 453.7 731.3 454.3 754.2 456.2C777 458 800 461 822.8 464.7C845.7 468.3 868.3 472.7 891.2 472C914 471.3 937 465.7 948.5 462.8L960 460L960 541L948.5 541C937 541 914 541 891.2 541C868.3 541 845.7 541 822.8 541C800 541 777 541 754.2 541C731.3 541 708.7 541 685.8 541C663 541 640 541 617.2 541C594.3 541 571.7 541 548.8 541C526 541 503 541 480 541C457 541 434 541 411.2 541C388.3 541 365.7 541 342.8 541C320 541 297 541 274.2 541C251.3 541 228.7 541 205.8 541C183 541 160 541 137.2 541C114.3 541 91.7 541 68.8 541C46 541 23 541 11.5 541L0 541Z" fill="#952a25"></path><path d="M0 469L11.5 471.3C23 473.7 46 478.3 68.8 483.3C91.7 488.3 114.3 493.7 137.2 489.8C160 486 183 473 205.8 469.8C228.7 466.7 251.3 473.3 274.2 477.7C297 482 320 484 342.8 487C365.7 490 388.3 494 411.2 492.5C434 491 457 484 480 479.3C503 474.7 526 472.3 548.8 472.3C571.7 472.3 594.3 474.7 617.2 475.5C640 476.3 663 475.7 685.8 477.5C708.7 479.3 731.3 483.7 754.2 487.5C777 491.3 800 494.7 822.8 494C845.7 493.3 868.3 488.7 891.2 484.5C914 480.3 937 476.7 948.5 474.8L960 473L960 541L948.5 541C937 541 914 541 891.2 541C868.3 541 845.7 541 822.8 541C800 541 777 541 754.2 541C731.3 541 708.7 541 685.8 541C663 541 640 541 617.2 541C594.3 541 571.7 541 548.8 541C526 541 503 541 480 541C457 541 434 541 411.2 541C388.3 541 365.7 541 342.8 541C320 541 297 541 274.2 541C251.3 541 228.7 541 205.8 541C183 541 160 541 137.2 541C114.3 541 91.7 541 68.8 541C46 541 23 541 11.5 541L0 541Z" fill="#932a24"></path><path d="M0 509L11.5 510.8C23 512.7 46 516.3 68.8 513.2C91.7 510 114.3 500 137.2 495.3C160 490.7 183 491.3 205.8 495.5C228.7 499.7 251.3 507.3 274.2 509.5C297 511.7 320 508.3 342.8 505.5C365.7 502.7 388.3 500.3 411.2 498C434 495.7 457 493.3 480 496C503 498.7 526 506.3 548.8 506.2C571.7 506 594.3 498 617.2 494.5C640 491 663 492 685.8 491.7C708.7 491.3 731.3 489.7 754.2 494C777 498.3 800 508.7 822.8 508.3C845.7 508 868.3 497 891.2 491C914 485 937 484 948.5 483.5L960 483L960 541L948.5 541C937 541 914 541 891.2 541C868.3 541 845.7 541 822.8 541C800 541 777 541 754.2 541C731.3 541 708.7 541 685.8 541C663 541 640 541 617.2 541C594.3 541 571.7 541 548.8 541C526 541 503 541 480 541C457 541 434 541 411.2 541C388.3 541 365.7 541 342.8 541C320 541 297 541 274.2 541C251.3 541 228.7 541 205.8 541C183 541 160 541 137.2 541C114.3 541 91.7 541 68.8 541C46 541 23 541 11.5 541L0 541Z" fill="#922924"></path><path d="M0 523L11.5 520C23 517 46 511 68.8 507C91.7 503 114.3 501 137.2 500.8C160 500.7 183 502.3 205.8 503.5C228.7 504.7 251.3 505.3 274.2 510.5C297 515.7 320 525.3 342.8 529.7C365.7 534 388.3 533 411.2 530.5C434 528 457 524 480 521.2C503 518.3 526 516.7 548.8 519C571.7 521.3 594.3 527.7 617.2 527.2C640 526.7 663 519.3 685.8 514.2C708.7 509 731.3 506 754.2 509.7C777 513.3 800 523.7 822.8 527C845.7 530.3 868.3 526.7 891.2 520.8C914 515 937 507 948.5 503L960 499L960 541L948.5 541C937 541 914 541 891.2 541C868.3 541 845.7 541 822.8 541C800 541 777 541 754.2 541C731.3 541 708.7 541 685.8 541C663 541 640 541 617.2 541C594.3 541 571.7 541 548.8 541C526 541 503 541 480 541C457 541 434 541 411.2 541C388.3 541 365.7 541 342.8 541C320 541 297 541 274.2 541C251.3 541 228.7 541 205.8 541C183 541 160 541 137.2 541C114.3 541 91.7 541 68.8 541C46 541 23 541 11.5 541L0 541Z" fill="#902923"></path></svg>